# xmcd
#
# Track frame offsets:
#	150
#	4078
#	24703
#	45615
#	63445
#	79738
#	98495
#	125044
#	144759
#	165495
#	175038
#	200661
#
# Disc length: 2936 seconds
#
# Revision: 0
# Processed by: cddbd v1.5.1PL2 Copyright (c) Steve Scherf et al.
# Submitted via: dBpowerAMP V4.0
#
DISCID=940b760c
DTITLE=Ying Yang Twins -  U.S.A. Still United
DYEAR=2005
DGENRE=Hip-Hop
TTITLE0=Mr.Collipark's Intro
TTITLE1=Wiggle Then Move
TTITLE2=Ms. New Booty
TTITLE3=Git It
TTITLE4=Get Yern
TTITLE5=The Pink
TTITLE6=4 Oz.
TTITLE7=Legendary Status
TTITLE8=Bedroom Boom
TTITLE9=Duts
TTITLE10=Wait (Utimix Remix)
TTITLE11=Shake Remix
EXTD=
EXTT0=
EXTT1=
EXTT2=
EXTT3=
EXTT4=
EXTT5=
EXTT6=
EXTT7=
EXTT8=
EXTT9=
EXTT10=
EXTT11=
PLAYORDER=
